<svg width="701" height="700" viewBox="0 0 701 700" fill="none" xmlns="http://www.w3.org/2000/svg">
    <path
        d="M184.001 700H133.051C107.305 700.011 82.1172 692.496 60.5867 678.379C39.0562 664.261 22.1223 644.158 11.8684 620.542C1.6144 596.926 -1.51225 570.828 2.87309 545.458C7.25842 520.088 18.9645 496.554 36.5509 477.75L76.4009 435C95.6415 414.381 106.124 387.097 105.639 358.9C105.154 330.702 93.7393 303.795 73.8009 283.85L34.6509 244.7C30.097 239.985 27.5771 233.67 27.6341 227.115C27.691 220.56 30.3202 214.29 34.9554 209.655C39.5906 205.019 45.861 202.39 52.4159 202.333C58.9708 202.276 65.2859 204.796 70.0009 209.35L109.101 248.5C138.199 277.609 154.859 316.879 155.568 358.032C156.276 399.185 140.979 439.006 112.901 469.1L73.0509 511.85C62.1526 523.547 54.9042 538.17 52.1945 553.926C49.4847 569.682 51.4313 585.887 57.7956 600.553C64.1599 615.219 74.6653 627.709 88.0238 636.492C101.382 645.275 117.014 649.97 133.001 650H158.151C158.051 639.8 158.101 627 158.551 612.4C159.851 574.4 164.051 523.25 176.051 471.7C188.051 420.45 208.151 366.8 242.551 325.5C273.201 288.7 314.851 262.25 369.651 256.1V109.3C369.704 80.3194 381.243 52.5417 401.74 32.054C422.237 11.5663 450.02 0.0396512 479.001 0C504.401 0 525.001 20.65 525.001 46.1V70.25H583.851C616.851 70.25 647.401 87.3 664.801 115.35L686.551 150.45C724.601 211.9 683.151 290.65 612.801 295.7V622.3C612.801 665.2 578.051 700 535.151 700H507.501V622.3C507.507 605.178 504.141 588.222 497.593 572.402C491.045 556.581 481.445 542.206 469.34 530.096C457.235 517.987 442.863 508.381 427.045 501.827C411.227 495.273 394.273 491.9 377.151 491.9H333.251C326.62 491.9 320.262 494.534 315.573 499.222C310.885 503.911 308.251 510.27 308.251 516.9C308.251 523.53 310.885 529.889 315.573 534.578C320.262 539.266 326.62 541.9 333.251 541.9H377.151C421.501 541.9 457.501 577.9 457.501 622.3V700H184.001Z"
        fill="#1C1678" />
</svg>
    